#!OML:ASF X:\für Bonn\!DataBase\2005_08_12_Daniel\c3d\Daniel.ASF
:FULLY-SPECIFIED
:DEGREES
1
root 19.2795 16.8743 0.405455 -731.004 -68.292 728.844
lowerback 15.3285 -4.08688 -0.695043
upperback 2.33509 -5.75198 -2.14163
thorax -6.23631 -2.85521 -0.694502
lowerneck 2.0039 8.80676 2.84071
upperneck -2.05811 11.7045 -6.07259
head -0.424875 5.897 -2.44339
rclavicle 2.34566e-014 2.26615e-014
rhumerus -46.678 10.9244 -103.032
rradius 61.4307
rwrist 4.49774
rhand -20.4832 17.3717
rfingers 7.12502
rthumb 5.87336 -12.5269
lclavicle 2.34566e-014 2.26615e-014
lhumerus -42.0897 4.55951 81.2969
lradius 119.485
lwrist 198.207
lhand -9.46863 18.6914
lfingers 7.12502
lthumb 16.4953 48.0102
rfemur -24.6167 -5.2627 10.1143
rtibia 48.7415
rfoot -19.9324 13.299
rtoes -11.4419
lfemur -5.83544 -15.7472 -28.4013
ltibia 42.345
lfoot -36.1295 10.811
ltoes -14.5078
2
root 19.2862 16.8855 0.415365 -730.675 -68.1436 728.436
lowerback 15.1845 -4.01977 -0.483126
upperback 2.36998 -5.62961 -2.19566
thorax -6.14432 -2.80218 -0.905829
lowerneck 1.85341 8.3436 2.42226
upperneck -1.73725 11.0926 -5.47472
head -0.386202 5.58304 -2.16989
rclavicle 1.19619e-013 1.19271e-015
rhumerus -46.6498 11.2245 -103.317
rradius 61.2088
rwrist 4.48618
rhand -20.4329 17.4117
rfingers 7.12502
rthumb 5.92186 -12.4855
lclavicle 1.19619e-013 1.19271e-015
lhumerus -41.9531 4.62915 81.2376
lradius 119.508
lwrist 198.256
lhand -9.69323 18.5194
lfingers 7.12502
lthumb 16.279 47.8561
rfemur -24.0074 -3.98248 10.2639
rtibia 48.1713
rfoot -20.5258 12.3473
rtoes -11.916
lfemur -5.7191 -15.8399 -28.3061
ltibia 42.2016
lfoot -36.0887 10.71
ltoes -14.4507
3
root 19.2913 16.8948 0.425573 -730.45 -68.0044 728.137
lowerback 15.0416 -3.9461 -0.316522
upperback 2.39897 -5.50737 -2.25922
thorax -6.05477 -2.74801 -1.10128
lowerneck 1.7757 7.88172 2.05854
upperneck -1.44845 10.4823 -4.92834
head -0.357689 5.27177 -1.92778
rclavicle 3.23025e-014 4.77083e-015
rhumerus -46.6388 11.5164 -103.594
rradius 61.0056
rwrist 4.581
rhand -20.3633 17.4491
rfingers 7.12502
rthumb 5.98908 -12.4463
lclavicle 3.23025e-014 4.77083e-015
lhumerus -41.8234 4.72495 81.2288
lradius 119.536
lwrist 198.252
lhand -9.9768 18.2469
lfingers 7.12502
lthumb 16.006 47.6057
rfemur -23.464 -2.7148 10.3781
rtibia 47.6356
rfoot -21.0729 11.3345
rtoes -12.3271
lfemur -5.59633 -15.9226 -28.2537
ltibia 42.0655
lfoot -36.0361 10.6298
ltoes -14.3599
4
root 19.2943 16.9013 0.435112 -730.294 -67.8787 727.914
lowerback 14.895 -3.86077 -0.204995
upperback 2.43615 -5.37866 -2.31893
thorax -5.94788 -2.68939 -1.2635
lowerneck 1.7286 7.42158 1.73564
upperneck -1.2033 9.87295 -4.44249
head -0.337026 4.96224 -1.71492
rclavicle -9.47209e-014 -2.22639e-014
rhumerus -46.6067 11.8181 -103.846
rradius 60.8052
rwrist 4.69145
rhand -20.2825 17.4883
rfingers 7.12502
rthumb 6.06709 -12.4049
lclavicle -9.47209e-014 -2.22639e-014
lhumerus -41.6762 4.77808 81.2435
lradius 119.558
lwrist 198.227
lhand -10.2129 17.9021
lfingers 7.12502
lthumb 15.7787 47.279
rfemur -23.0048 -1.46058 10.4698
rtibia 47.1663
rfoot -21.6005 10.329
rtoes -12.6728
lfemur -5.47839 -15.9893 -28.225
ltibia 41.9534
lfoot -36.0192 10.5325
ltoes -14.2457
5
root 19.2962 16.9053 0.445003 -730.233 -67.7673 727.797
lowerback 14.7425 -3.7747 -0.135077
upperback 2.47308 -5.25638 -2.38666
thorax -5.83453 -2.63299 -1.40953
lowerneck 1.71447 6.97034 1.44372
upperneck -0.970677 9.27502 -3.98943
head -0.317345 4.65917 -1.51962
rclavicle -2.80286e-014 -2.26615e-014
rhumerus -46.5723 12.2089 -104.097
rradius 60.6223
rwrist 4.75261
rhand -20.2432 17.5208
rfingers 7.12502
rthumb 6.10502 -12.3713
lclavicle -2.80286e-014 -2.26615e-014
lhumerus -41.5292 4.85616 81.2712
lradius 119.569
lwrist 198.182
lhand -10.4521 17.5701
lfingers 7.12502
lthumb 15.5483 46.9651
rfemur -22.65 -0.308576 10.5127
rtibia 46.785
rfoot -22.09 9.34189
rtoes -12.9991
lfemur -5.37846 -16.0511 -28.2421
ltibia 41.8805
lfoot -36.006 10.4548
ltoes -14.1481
6
root 19.2974 16.9067 0.453976 -730.138 -67.6521 727.652
lowerback 14.5927 -3.69174 -0.0697469
upperback 2.50223 -5.1388 -2.45111
thorax -5.72973 -2.5784 -1.54761
lowerneck 1.79583 6.53513 1.19529
upperneck -0.806261 8.69695 -3.56919
head -0.326172 4.36765 -1.34764
rclavicle 4.18939e-014 -2.66371e-014
rhumerus -46.5741 12.5967 -104.333
rradius 60.4707
rwrist 4.85906
rhand -20.2058 17.5592
rfingers 7.12502
rthumb 6.14117 -12.3318
lclavicle 4.18939e-014 -2.66371e-014
lhumerus -41.4009 4.90444 81.2966
lradius 119.575
lwrist 198.137
lhand -10.6628 17.1974
lfingers 7.12502
lthumb 15.3453 46.608
rfemur -22.3809 0.682017 10.5622
rtibia 46.4915
rfoot -22.5091 8.411
rtoes -13.2696
lfemur -5.31179 -16.0682 -28.2287
ltibia 41.8491
lfoot -36.0254 10.3402
ltoes -14.0749
7
root 19.2976 16.9057 0.462952 -730.073 -67.5566 727.547
lowerback 14.4358 -3.61025 -0.0477203
upperback 2.53932 -5.02829 -2.49466
thorax -5.60672 -2.5261 -1.63835
lowerneck 1.84978 6.12366 0.953081
upperneck -0.626517 8.14966 -3.20341
head -0.318435 4.09136 -1.1918
rclavicle 1.19271e-015 -7.95139e-016
rhumerus -46.5252 13.0445 -104.528
rradius 60.3004
rwrist 5.01044
rhand -20.1818 17.5734
rfingers 7.12502
rthumb 6.16429 -12.317
lclavicle 1.19271e-015 -7.95139e-016
lhumerus -41.2843 4.99521 81.3643
lradius 119.576
lwrist 198.075
lhand -10.8385 16.95
lfingers 7.12502
lthumb 15.1761 46.3734
rfemur -22.1916 1.52473 10.5978
rtibia 46.2852
rfoot -22.8766 7.53444
rtoes -13.4683
lfemur -5.27065 -16.0874 -28.2272
ltibia 41.8589
lfoot -36.0391 10.2346
ltoes -13.9509
8
root 19.2968 16.9036 0.471088 -730.008 -67.4629 727.441
lowerback 14.284 -3.52461 -0.0387757
upperback 2.57455 -4.91442 -2.53964
thorax -5.4871 -2.47175 -1.723
lowerneck 2.02496 5.7267 0.749456
upperneck -0.540342 7.61997 -2.8455
head -0.353957 3.82538 -1.05118
rclavicle 5.13858e-014 -1.11319e-014
rhumerus -46.5015 13.4963 -104.714
rradius 60.1702
rwrist 5.15434
rhand -20.1521 17.6126
rfingers 7.12502
rthumb 6.19293 -12.2768
lclavicle 5.13858e-014 -1.11319e-014
lhumerus -41.1879 5.07161 81.4361
lradius 119.56
lwrist 198.032
lhand -10.9519 16.7282
lfingers 7.12502
lthumb 15.0668 46.1599
rfemur -22.0475 2.2366 10.6322
rtibia 46.158
rfoot -23.1898 6.76233
rtoes -13.4674
lfemur -5.24528 -16.0718 -28.2105
ltibia 41.9
lfoot -36.0947 10.0683
ltoes -13.8883
9
root 19.296 16.8998 0.479102 -729.978 -67.3836 727.38
lowerback 14.1359 -3.43173 -0.0335243
upperback 2.60893 -4.7924 -2.5961
thorax -5.37057 -2.41335 -1.81838
lowerneck 2.24467 5.34458 0.588821
upperneck -0.506787 7.10938 -2.51672
head -0.406969 3.56942 -0.928415
rclavicle -1.07841e-014 -7.95139e-016
rhumerus -46.4598 13.9634 -104.895
rradius 60.0518
rwrist 5.31744
rhand -20.1316 17.6443
rfingers 7.12502
rthumb 6.2128 -12.2446
lclavicle -1.07841e-014 -7.95139e-016
lhumerus -41.1106 5.12984 81.5088
lradius 119.537
lwrist 198.05
lhand -11.1 16.577
lfingers 7.12502
lthumb 14.9242 46.0193
rfemur -21.9479 2.80196 10.6536
rtibia 46.0991
rfoot -23.4582 6.13219
rtoes -13.4471
lfemur -5.23915 -16.0639 -28.2145
ltibia 41.9637
lfoot -36.141 9.94793
ltoes -13.7482
10
root 19.2954 16.8947 0.487299 -729.947 -67.309 727.319
lowerback 14.0128 -3.34042 -0.0271852
upperback 2.63096 -4.6724 -2.64946
thorax -5.28044 -2.35562 -1.90832
lowerneck 2.46248 4.97606 0.416415
upperneck -0.448974 6.61663 -2.17566
head -0.450056 3.32171 -0.798508
rclavicle -5.34731e-014 1.51076e-014
rhumerus -46.4168 14.4318 -105.062
rradius 59.9142
rwrist 5.53082
rhand -20.1795 17.7073
rfingers 7.12502
rthumb 6.16648 -12.1829
lclavicle -5.34731e-014 1.51076e-014
lhumerus -41.0728 5.18634 81.5977
lradius 119.49
lwrist 198.103
lhand -11.1804 16.5032
lfingers 7.12502
lthumb 14.8467 45.9513
rfemur -21.8853 3.17422 10.686
rtibia 46.0956
rfoot -23.6967 5.62848
rtoes -13.6492
lfemur -5.23797 -16.0371 -28.213
ltibia 42.0379
lfoot -36.1799 9.79153
ltoes -13.5895
11
root 19.2946 16.8898 0.494831 -729.947 -67.2251 727.289
lowerback 13.8878 -3.25187 -0.0368624
upperback 2.67276 -4.55866 -2.70844
thorax -5.16757 -2.30085 -1.99425
lowerneck 2.66655 4.6052 0.218659
upperneck -0.447222 6.11928 -1.80676
head -0.507097 3.0715 -0.655807
rclavicle -4.58696e-014 0
rhumerus -46.3042 14.9696 -105.234
rradius 59.7428
rwrist 5.66727
rhand -20.2436 17.7908
rfingers 7.12502
rthumb 6.1046 -12.1012
lclavicle -4.58696e-014 0
lhumerus -41.0065 5.25515 81.6848
lradius 119.425
lwrist 198.19
lhand -11.2805 16.4833
lfingers 7.12502
lthumb 14.7502 45.9384
rfemur -21.839 3.46599 10.69
rtibia 46.1252
rfoot -23.878 5.22529
rtoes -13.6465
lfemur -5.24006 -15.9986 -28.2167
ltibia 42.1155
lfoot -36.2406 9.62387
ltoes -13.4781
12
root 19.2934 16.8859 0.502095 -729.932 -67.15 727.26
lowerback 13.7708 -3.15707 -0.0429144
upperback 2.6947 -4.43605 -2.76604
thorax -5.07968 -2.24148 -2.08088
lowerneck 2.86436 4.23247 0.0147997
upperneck -0.40632 5.6193 -1.42906
head -0.548719 2.8192 -0.507605
rclavicle 7.7526e-015 1.51076e-014
rhumerus -46.2109 15.5217 -105.393
rradius 59.5929
rwrist 5.78439
rhand -20.3746 17.9568
rfingers 7.12502
rthumb 5.97818 -11.9389
lclavicle 7.7526e-015 1.51076e-014
lhumerus -40.9875 5.28351 81.7888
lradius 119.338
lwrist 198.345
lhand -11.3452 16.5268
lfingers 7.12502
lthumb 14.6879 45.9865
rfemur -21.8252 3.59316 10.6891
rtibia 46.1753
rfoot -23.9998 4.95803
rtoes -13.7361
lfemur -5.26015 -15.9557 -28.2142
ltibia 42.1859
lfoot -36.27 9.46944
ltoes -13.3362
13
root 19.2927 16.882 0.509076 -729.965 -67.0817 727.266
lowerback 13.6927 -3.06358 -0.0719429
upperback 2.71616 -4.31906 -2.82239
thorax -5.0118 -2.18443 -2.14982
lowerneck 3.06525 3.8713 -0.23206
upperneck -0.387451 5.13291 -1.01428
head -0.596895 2.57317 -0.34099
rclavicle 2.50469e-014 1.82882e-014
rhumerus -46.076 16.0681 -105.537
rradius 59.4299
rwrist 5.84993
rhand -20.4683 18.164
rfingers 7.12502
rthumb 5.88768 -11.7342
lclavicle 2.50469e-014 1.82882e-014
lhumerus -40.9722 5.34959 81.8911
lradius 119.237
lwrist 198.517
lhand -11.4664 16.5861
lfingers 7.12502
lthumb 14.5712 46.0543
rfemur -21.8074 3.64038 10.6611
rtibia 46.2318
rfoot -24.0634 4.81618
rtoes -13.6938
lfemur -5.25484 -15.888 -28.2283
ltibia 42.2456
lfoot -36.2841 9.3296
ltoes -13.2344
